<svg xmlns="http://www.w3.org/2000/svg" xmlns:xlink="http://www.w3.org/1999/xlink" id="Capa_2" x="0px" y="0px" viewBox="0 0 540 642.7" style="enable-background:new 0 0 540 642.7;" xml:space="preserve"><style type="text/css">	.st0{fill:#214284;}	.st1{fill:none;}	.st2{font-family:'MoolBoran';}	.st3{font-size:147px;}	.st4{font-size:75px;}</style><g>	<path class="st0" d="M106.9,0H37.8C17.3,0,0.7,16.6,0.7,37.1v379.3c2-0.1,4-0.1,6-0.1l0,0C38.1,410.2,139.5,89.4,106.9,0z"></path>	<path class="st0" d="M502.9,0H182.7c-42.3,65.3-76.4,239.9-142.6,417c14.5,0.8,24.7,1.9,25.2,2c-0.3-0.3-3.7-4,6.1-10.3  c-6.2-8.7,3.9-19.6,20-21.3c22.5-1.8,48.2,14.6,62.7,45.9c0,0,7.4,13.2,13.1,22.8c21.4-21.5,50.9-39.5,74-57.5  c1.6-9.2,6.8-7.4,2.2-18.9c-15.3,2.4-34.5,5-46.6-10.9c-12.1-15.9-4.3-16.4,0.2-32.7c1.1-6.3-5.5-12.1-11-17.8  c-5.5-5.7-8-4.7-0.4-12.5c-3.8-1.8-5.5-2.3-6.8-7.3c-1.3-5,12.2-15.1,11.6-21.2c-0.5-4.6-9.5-2.9-14.6-10.7  c-2.8-4.3-0.9-10,3.7-12.2c6.5-3,16.2-8.8,21.6-18.1c8.8-15,10.7-65.7,12.6-79.7c1.9-14,24-60.4,87.1-77.7  c63.1-17.2,99.2-3.6,123.3,9.2c24,12.8,74.6,51.4,80.4,88.8c5.8,37.5,9.2,74.7-17.2,104.8c-26.4,30-44.1,47.4-90.2,65.8  c-18.1,15.9-18.1,15.9-28,32.8c11.3,28.3,17,22.6,19.7,48.2c2.2,20.7,2,62.5-13.6,110.9h127.5c20.5,0,37.1-16.6,37.1-37.1V37.1  C540,16.6,523.4,0,502.9,0z"></path></g><rect y="461.2" class="st1" width="240" height="88"></rect><text transform="matrix(1 0 0 1 0 536.3052)" class="st0 st2 st3">In3</text><rect y="555.2" class="st1" width="540" height="68"></rect><text transform="matrix(1 0 0 1 1.6953 593.5142)" class="st0 st2 st4">Low cost infant incubator</text></svg>